<mxfile host="app.diagrams.net" agent="Mozilla/5.0 (Windows NT 10.0; Win64; x64) AppleWebKit/537.36 (KHTML, like Gecko) Chrome/127.0.0.0 Safari/537.36" version="24.7.7">
  <diagram name="Page-1" id="97916047-d0de-89f5-080d-49f4d83e522f">
    <mxGraphModel dx="934" dy="672" grid="1" gridSize="8" guides="1" tooltips="1" connect="1" arrows="1" fold="1" page="1" pageScale="1.5" pageWidth="1169" pageHeight="827" background="none" math="0" shadow="0">
      <root>
        <mxCell id="0" />
        <mxCell id="1" parent="0" />
        <mxCell id="QyTk0_hx5FmbBSK6naLs-234" value="" style="ellipse;whiteSpace=wrap;html=1;aspect=fixed;dashed=1;strokeWidth=4;fillStyle=dots;fillColor=#E8E8E8;fontColor=#FFFFFF;fontStyle=1" vertex="1" parent="1">
          <mxGeometry x="682" y="125" width="380" height="380" as="geometry" />
        </mxCell>
        <mxCell id="QyTk0_hx5FmbBSK6naLs-236" style="edgeStyle=orthogonalEdgeStyle;rounded=1;orthogonalLoop=1;jettySize=auto;html=1;exitX=0.5;exitY=1;exitDx=0;exitDy=0;entryX=0.5;entryY=0;entryDx=0;entryDy=0;strokeWidth=4;curved=0;fontColor=#FFFFFF;fontStyle=1;dashed=1;" edge="1" parent="1" source="3" target="QyTk0_hx5FmbBSK6naLs-230">
          <mxGeometry relative="1" as="geometry">
            <Array as="points">
              <mxPoint x="607" y="160" />
              <mxPoint x="872" y="160" />
            </Array>
          </mxGeometry>
        </mxCell>
        <mxCell id="QyTk0_hx5FmbBSK6naLs-237" style="edgeStyle=orthogonalEdgeStyle;rounded=1;orthogonalLoop=1;jettySize=auto;html=1;exitX=0.5;exitY=1;exitDx=0;exitDy=0;entryX=0.5;entryY=0;entryDx=0;entryDy=0;strokeWidth=4;curved=0;fontColor=#FFFFFF;fontStyle=1;dashed=1;" edge="1" parent="1" source="3" target="QyTk0_hx5FmbBSK6naLs-231">
          <mxGeometry relative="1" as="geometry">
            <Array as="points">
              <mxPoint x="607" y="160" />
              <mxPoint x="872" y="160" />
            </Array>
          </mxGeometry>
        </mxCell>
        <mxCell id="2" value="CEO" style="rounded=1;fillColor=#CF7E3B;strokeColor=none;shadow=1;fontStyle=1;fontSize=14;fontColor=#FFFFFF;" parent="1" vertex="1">
          <mxGeometry x="122" y="55" width="200" height="60" as="geometry" />
        </mxCell>
        <mxCell id="QyTk0_hx5FmbBSK6naLs-64" value="" style="edgeStyle=orthogonalEdgeStyle;rounded=1;orthogonalLoop=1;jettySize=auto;html=1;exitX=0.5;exitY=1;exitDx=0;exitDy=0;entryX=1;entryY=0.5;entryDx=0;entryDy=0;strokeWidth=4;curved=0;fontColor=#FFFFFF;fontStyle=1" edge="1" parent="1" source="3" target="QyTk0_hx5FmbBSK6naLs-60">
          <mxGeometry relative="1" as="geometry">
            <Array as="points">
              <mxPoint x="607" y="160" />
              <mxPoint x="366" y="160" />
              <mxPoint x="366" y="690" />
            </Array>
          </mxGeometry>
        </mxCell>
        <mxCell id="QyTk0_hx5FmbBSK6naLs-65" style="edgeStyle=orthogonalEdgeStyle;rounded=1;orthogonalLoop=1;jettySize=auto;html=1;exitX=0.5;exitY=1;exitDx=0;exitDy=0;entryX=1;entryY=0.5;entryDx=0;entryDy=0;curved=0;strokeWidth=4;fontColor=#FFFFFF;fontStyle=1" edge="1" parent="1" source="3" target="QyTk0_hx5FmbBSK6naLs-61">
          <mxGeometry relative="1" as="geometry">
            <Array as="points">
              <mxPoint x="607" y="160" />
              <mxPoint x="366" y="160" />
              <mxPoint x="366" y="780" />
            </Array>
          </mxGeometry>
        </mxCell>
        <mxCell id="QyTk0_hx5FmbBSK6naLs-66" style="edgeStyle=orthogonalEdgeStyle;rounded=1;orthogonalLoop=1;jettySize=auto;html=1;exitX=0.5;exitY=1;exitDx=0;exitDy=0;entryX=1;entryY=0.5;entryDx=0;entryDy=0;curved=0;strokeWidth=4;fontColor=#FFFFFF;fontStyle=1" edge="1" parent="1" source="3" target="QyTk0_hx5FmbBSK6naLs-62">
          <mxGeometry relative="1" as="geometry">
            <Array as="points">
              <mxPoint x="607" y="160" />
              <mxPoint x="366" y="160" />
              <mxPoint x="366" y="874" />
            </Array>
          </mxGeometry>
        </mxCell>
        <mxCell id="QyTk0_hx5FmbBSK6naLs-67" style="edgeStyle=orthogonalEdgeStyle;rounded=1;orthogonalLoop=1;jettySize=auto;html=1;exitX=0.5;exitY=1;exitDx=0;exitDy=0;entryX=1;entryY=0.5;entryDx=0;entryDy=0;strokeWidth=4;curved=0;fontColor=#FFFFFF;fontStyle=1" edge="1" parent="1" source="3" target="5">
          <mxGeometry relative="1" as="geometry">
            <Array as="points">
              <mxPoint x="607" y="160" />
              <mxPoint x="366" y="160" />
              <mxPoint x="366" y="595" />
            </Array>
          </mxGeometry>
        </mxCell>
        <mxCell id="QyTk0_hx5FmbBSK6naLs-72" style="edgeStyle=orthogonalEdgeStyle;rounded=1;orthogonalLoop=1;jettySize=auto;html=1;exitX=0.5;exitY=1;exitDx=0;exitDy=0;entryX=1;entryY=0.5;entryDx=0;entryDy=0;curved=0;strokeWidth=4;fontColor=#FFFFFF;fontStyle=1" edge="1" parent="1" source="3" target="QyTk0_hx5FmbBSK6naLs-68">
          <mxGeometry relative="1" as="geometry">
            <Array as="points">
              <mxPoint x="607" y="160" />
              <mxPoint x="366" y="160" />
              <mxPoint x="366" y="221" />
            </Array>
          </mxGeometry>
        </mxCell>
        <mxCell id="QyTk0_hx5FmbBSK6naLs-73" style="edgeStyle=orthogonalEdgeStyle;rounded=1;orthogonalLoop=1;jettySize=auto;html=1;exitX=0.5;exitY=1;exitDx=0;exitDy=0;entryX=1;entryY=0.5;entryDx=0;entryDy=0;curved=0;strokeWidth=4;fontColor=#FFFFFF;fontStyle=1" edge="1" parent="1" source="3" target="QyTk0_hx5FmbBSK6naLs-69">
          <mxGeometry relative="1" as="geometry">
            <Array as="points">
              <mxPoint x="607" y="160" />
              <mxPoint x="366" y="160" />
              <mxPoint x="366" y="315" />
            </Array>
          </mxGeometry>
        </mxCell>
        <mxCell id="QyTk0_hx5FmbBSK6naLs-74" style="edgeStyle=orthogonalEdgeStyle;rounded=1;orthogonalLoop=1;jettySize=auto;html=1;exitX=0.5;exitY=1;exitDx=0;exitDy=0;entryX=1;entryY=0.5;entryDx=0;entryDy=0;curved=0;strokeWidth=4;fontColor=#FFFFFF;fontStyle=1" edge="1" parent="1" source="3" target="QyTk0_hx5FmbBSK6naLs-70">
          <mxGeometry relative="1" as="geometry">
            <Array as="points">
              <mxPoint x="607" y="160" />
              <mxPoint x="366" y="160" />
              <mxPoint x="366" y="405" />
            </Array>
          </mxGeometry>
        </mxCell>
        <mxCell id="QyTk0_hx5FmbBSK6naLs-75" style="edgeStyle=orthogonalEdgeStyle;rounded=1;orthogonalLoop=1;jettySize=auto;html=1;exitX=0.5;exitY=1;exitDx=0;exitDy=0;entryX=1;entryY=0.5;entryDx=0;entryDy=0;curved=0;strokeWidth=4;fontColor=#FFFFFF;fontStyle=1" edge="1" parent="1" source="3" target="QyTk0_hx5FmbBSK6naLs-71">
          <mxGeometry relative="1" as="geometry">
            <Array as="points">
              <mxPoint x="607" y="160" />
              <mxPoint x="366" y="160" />
              <mxPoint x="366" y="500" />
            </Array>
          </mxGeometry>
        </mxCell>
        <mxCell id="QyTk0_hx5FmbBSK6naLs-235" style="edgeStyle=orthogonalEdgeStyle;rounded=1;orthogonalLoop=1;jettySize=auto;html=1;exitX=0.5;exitY=1;exitDx=0;exitDy=0;entryX=0.5;entryY=0;entryDx=0;entryDy=0;strokeWidth=4;curved=0;fontColor=#FFFFFF;fontStyle=1;dashed=1;" edge="1" parent="1" source="3" target="QyTk0_hx5FmbBSK6naLs-229">
          <mxGeometry relative="1" as="geometry">
            <Array as="points">
              <mxPoint x="607" y="160" />
              <mxPoint x="872" y="160" />
            </Array>
          </mxGeometry>
        </mxCell>
        <mxCell id="3" value="DCEO Operations" style="rounded=1;fillColor=#4F81BD;strokeColor=none;shadow=1;fontStyle=1;fontColor=#FFFFFF;fontSize=14;" parent="1" vertex="1">
          <mxGeometry x="497" y="55" width="220" height="60" as="geometry" />
        </mxCell>
        <mxCell id="5" value="Human Resource Dept." style="rounded=1;fillColor=#C0504D;strokeColor=none;shadow=1;fontStyle=1;fontSize=14;fontColor=#FFFFFF;" parent="1" vertex="1">
          <mxGeometry x="122" y="565" width="200" height="60" as="geometry" />
        </mxCell>
        <mxCell id="QyTk0_hx5FmbBSK6naLs-151" style="edgeStyle=orthogonalEdgeStyle;rounded=1;orthogonalLoop=1;jettySize=auto;html=1;exitX=0.5;exitY=1;exitDx=0;exitDy=0;entryX=0;entryY=0.5;entryDx=0;entryDy=0;curved=0;strokeWidth=3;fontColor=#FFFFFF;fontStyle=1" edge="1" parent="1" source="6" target="QyTk0_hx5FmbBSK6naLs-133">
          <mxGeometry relative="1" as="geometry">
            <Array as="points">
              <mxPoint x="607" y="305" />
              <mxPoint x="452" y="305" />
              <mxPoint x="452" y="405" />
            </Array>
          </mxGeometry>
        </mxCell>
        <mxCell id="QyTk0_hx5FmbBSK6naLs-152" style="edgeStyle=orthogonalEdgeStyle;rounded=1;orthogonalLoop=1;jettySize=auto;html=1;exitX=0.5;exitY=1;exitDx=0;exitDy=0;entryX=0;entryY=0.5;entryDx=0;entryDy=0;curved=0;strokeWidth=3;fontColor=#FFFFFF;fontStyle=1" edge="1" parent="1" source="6" target="QyTk0_hx5FmbBSK6naLs-134">
          <mxGeometry relative="1" as="geometry">
            <Array as="points">
              <mxPoint x="607" y="305" />
              <mxPoint x="452" y="305" />
              <mxPoint x="452" y="495" />
            </Array>
          </mxGeometry>
        </mxCell>
        <mxCell id="QyTk0_hx5FmbBSK6naLs-153" style="edgeStyle=orthogonalEdgeStyle;rounded=1;orthogonalLoop=1;jettySize=auto;html=1;exitX=0.5;exitY=1;exitDx=0;exitDy=0;entryX=0;entryY=0.5;entryDx=0;entryDy=0;curved=0;strokeWidth=3;fontColor=#FFFFFF;fontStyle=1" edge="1" parent="1" source="6" target="QyTk0_hx5FmbBSK6naLs-135">
          <mxGeometry relative="1" as="geometry">
            <Array as="points">
              <mxPoint x="607" y="305" />
              <mxPoint x="452" y="305" />
              <mxPoint x="452" y="589" />
            </Array>
          </mxGeometry>
        </mxCell>
        <mxCell id="QyTk0_hx5FmbBSK6naLs-154" style="edgeStyle=orthogonalEdgeStyle;rounded=1;orthogonalLoop=1;jettySize=auto;html=1;exitX=0.5;exitY=1;exitDx=0;exitDy=0;entryX=0;entryY=0.5;entryDx=0;entryDy=0;curved=0;strokeWidth=3;fontColor=#FFFFFF;fontStyle=1" edge="1" parent="1" source="6" target="QyTk0_hx5FmbBSK6naLs-141">
          <mxGeometry relative="1" as="geometry">
            <Array as="points">
              <mxPoint x="607" y="305" />
              <mxPoint x="452" y="305" />
              <mxPoint x="452" y="685" />
            </Array>
          </mxGeometry>
        </mxCell>
        <mxCell id="QyTk0_hx5FmbBSK6naLs-155" style="edgeStyle=orthogonalEdgeStyle;rounded=1;orthogonalLoop=1;jettySize=auto;html=1;exitX=0.5;exitY=1;exitDx=0;exitDy=0;entryX=0;entryY=0.5;entryDx=0;entryDy=0;curved=0;strokeWidth=3;fontColor=#FFFFFF;fontStyle=1" edge="1" parent="1" source="6" target="QyTk0_hx5FmbBSK6naLs-138">
          <mxGeometry relative="1" as="geometry">
            <Array as="points">
              <mxPoint x="607" y="305" />
              <mxPoint x="382" y="305" />
              <mxPoint x="382" y="881" />
            </Array>
          </mxGeometry>
        </mxCell>
        <mxCell id="6" value="TOP 1 FM" style="rounded=1;fillColor=#C0504D;strokeColor=none;shadow=1;gradientColor=none;fontStyle=1;fontColor=#FFFFFF;fontSize=14;" parent="1" vertex="1">
          <mxGeometry x="507" y="190.5" width="200" height="60" as="geometry" />
        </mxCell>
        <mxCell id="32" value="" style="edgeStyle=elbowEdgeStyle;elbow=vertical;strokeWidth=4;endArrow=block;endFill=1;fontStyle=1;strokeColor=#000000;fontColor=#FFFFFF;" parent="1" source="3" target="6" edge="1">
          <mxGeometry x="22" y="165.5" width="100" height="100" as="geometry">
            <mxPoint x="-126" y="0.5" as="sourcePoint" />
            <mxPoint x="-26" y="-99.5" as="targetPoint" />
          </mxGeometry>
        </mxCell>
        <mxCell id="QyTk0_hx5FmbBSK6naLs-244" style="edgeStyle=orthogonalEdgeStyle;rounded=1;orthogonalLoop=1;jettySize=auto;html=1;exitX=0.5;exitY=1;exitDx=0;exitDy=0;entryX=0.5;entryY=0;entryDx=0;entryDy=0;strokeWidth=3;curved=0;fontColor=#FFFFFF;fontStyle=1" edge="1" parent="1" source="QyTk0_hx5FmbBSK6naLs-55" target="QyTk0_hx5FmbBSK6naLs-241">
          <mxGeometry relative="1" as="geometry" />
        </mxCell>
        <mxCell id="QyTk0_hx5FmbBSK6naLs-245" style="edgeStyle=orthogonalEdgeStyle;rounded=1;orthogonalLoop=1;jettySize=auto;html=1;exitX=0.5;exitY=1;exitDx=0;exitDy=0;entryX=0.5;entryY=0;entryDx=0;entryDy=0;strokeWidth=3;curved=0;fontColor=#FFFFFF;fontStyle=1" edge="1" parent="1" source="QyTk0_hx5FmbBSK6naLs-55" target="QyTk0_hx5FmbBSK6naLs-239">
          <mxGeometry relative="1" as="geometry">
            <Array as="points">
              <mxPoint x="1122" y="160" />
              <mxPoint x="1242" y="160" />
              <mxPoint x="1242" y="265" />
              <mxPoint x="1122" y="265" />
            </Array>
          </mxGeometry>
        </mxCell>
        <mxCell id="QyTk0_hx5FmbBSK6naLs-55" value="DCEO Construction" style="rounded=1;fillColor=#4F81BD;strokeColor=none;shadow=1;fontStyle=1;fontColor=#FFFFFF;fontSize=14;" vertex="1" parent="1">
          <mxGeometry x="1022" y="55" width="200" height="60" as="geometry" />
        </mxCell>
        <mxCell id="QyTk0_hx5FmbBSK6naLs-254" style="edgeStyle=orthogonalEdgeStyle;rounded=1;orthogonalLoop=1;jettySize=auto;html=1;exitX=0.5;exitY=1;exitDx=0;exitDy=0;entryX=0.5;entryY=0;entryDx=0;entryDy=0;strokeWidth=3;curved=0;fontColor=#FFFFFF;fontStyle=1" edge="1" parent="1" source="QyTk0_hx5FmbBSK6naLs-56" target="QyTk0_hx5FmbBSK6naLs-247">
          <mxGeometry relative="1" as="geometry" />
        </mxCell>
        <mxCell id="QyTk0_hx5FmbBSK6naLs-257" style="edgeStyle=orthogonalEdgeStyle;rounded=1;orthogonalLoop=1;jettySize=auto;html=1;exitX=0.5;exitY=1;exitDx=0;exitDy=0;entryX=0.5;entryY=0;entryDx=0;entryDy=0;strokeWidth=3;curved=0;fontColor=#FFFFFF;fontStyle=1" edge="1" parent="1" source="QyTk0_hx5FmbBSK6naLs-56" target="QyTk0_hx5FmbBSK6naLs-248">
          <mxGeometry relative="1" as="geometry">
            <Array as="points">
              <mxPoint x="1372" y="160" />
              <mxPoint x="1742" y="160" />
              <mxPoint x="1742" y="355" />
              <mxPoint x="1372" y="355" />
            </Array>
          </mxGeometry>
        </mxCell>
        <mxCell id="QyTk0_hx5FmbBSK6naLs-268" style="edgeStyle=orthogonalEdgeStyle;rounded=1;orthogonalLoop=1;jettySize=auto;html=1;exitX=0.5;exitY=1;exitDx=0;exitDy=0;entryX=0.5;entryY=0;entryDx=0;entryDy=0;strokeWidth=3;curved=0;fontColor=#FFFFFF;fontStyle=1" edge="1" parent="1" source="QyTk0_hx5FmbBSK6naLs-56" target="QyTk0_hx5FmbBSK6naLs-264">
          <mxGeometry relative="1" as="geometry">
            <Array as="points">
              <mxPoint x="1372" y="160" />
              <mxPoint x="1742" y="160" />
              <mxPoint x="1742" y="635" />
              <mxPoint x="1372" y="635" />
            </Array>
          </mxGeometry>
        </mxCell>
        <mxCell id="QyTk0_hx5FmbBSK6naLs-276" style="edgeStyle=orthogonalEdgeStyle;rounded=1;orthogonalLoop=1;jettySize=auto;html=1;exitX=0.5;exitY=1;exitDx=0;exitDy=0;entryX=0.5;entryY=0;entryDx=0;entryDy=0;strokeWidth=3;curved=0;fontColor=#FFFFFF;fontStyle=1" edge="1" parent="1" source="QyTk0_hx5FmbBSK6naLs-56" target="QyTk0_hx5FmbBSK6naLs-275">
          <mxGeometry relative="1" as="geometry">
            <Array as="points">
              <mxPoint x="1372" y="160" />
              <mxPoint x="1742" y="160" />
              <mxPoint x="1742" y="825" />
              <mxPoint x="1372" y="825" />
            </Array>
          </mxGeometry>
        </mxCell>
        <mxCell id="QyTk0_hx5FmbBSK6naLs-56" value="DCEO FSM" style="rounded=1;fillColor=#4F81BD;strokeColor=none;shadow=1;fontStyle=1;fontColor=#FFFFFF;fontSize=14;" vertex="1" parent="1">
          <mxGeometry x="1272" y="55" width="200" height="60" as="geometry" />
        </mxCell>
        <mxCell id="QyTk0_hx5FmbBSK6naLs-60" value="Risk &amp; Insurance Dept." style="rounded=1;fillColor=#C0504D;strokeColor=none;shadow=1;fontStyle=1;fontSize=14;fontColor=#FFFFFF;" vertex="1" parent="1">
          <mxGeometry x="122" y="659.5" width="200" height="60" as="geometry" />
        </mxCell>
        <mxCell id="QyTk0_hx5FmbBSK6naLs-61" value="IT Dept." style="rounded=1;fillColor=#C0504D;strokeColor=none;shadow=1;fontStyle=1;fontSize=14;fontColor=#FFFFFF;" vertex="1" parent="1">
          <mxGeometry x="122" y="749.5" width="200" height="60" as="geometry" />
        </mxCell>
        <mxCell id="QyTk0_hx5FmbBSK6naLs-62" value="Canteen Dept." style="rounded=1;fillColor=#C0504D;strokeColor=none;shadow=1;fontStyle=1;fontSize=14;fontColor=#FFFFFF;" vertex="1" parent="1">
          <mxGeometry x="122" y="844" width="200" height="60" as="geometry" />
        </mxCell>
        <mxCell id="QyTk0_hx5FmbBSK6naLs-68" value="R&amp;D Dept." style="rounded=1;fillColor=#C0504D;strokeColor=none;shadow=1;fontStyle=1;fontSize=14;fontColor=#FFFFFF;" vertex="1" parent="1">
          <mxGeometry x="118" y="190.5" width="200" height="60" as="geometry" />
        </mxCell>
        <mxCell id="QyTk0_hx5FmbBSK6naLs-69" value="Electrical Dept." style="rounded=1;fillColor=#C0504D;strokeColor=none;shadow=1;fontStyle=1;fontSize=14;fontColor=#FFFFFF;" vertex="1" parent="1">
          <mxGeometry x="118" y="285" width="200" height="60" as="geometry" />
        </mxCell>
        <mxCell id="QyTk0_hx5FmbBSK6naLs-70" value="Env. Health &amp; Safety Dept." style="rounded=1;fillColor=#C0504D;strokeColor=none;shadow=1;fontStyle=1;fontSize=14;fontColor=#FFFFFF;" vertex="1" parent="1">
          <mxGeometry x="122" y="375" width="200" height="60" as="geometry" />
        </mxCell>
        <mxCell id="QyTk0_hx5FmbBSK6naLs-71" value="Quality Dept." style="rounded=1;fillColor=#C0504D;strokeColor=none;shadow=1;fontStyle=1;fontSize=14;fontColor=#FFFFFF;" vertex="1" parent="1">
          <mxGeometry x="122" y="469.5" width="200" height="60" as="geometry" />
        </mxCell>
        <mxCell id="QyTk0_hx5FmbBSK6naLs-156" style="edgeStyle=orthogonalEdgeStyle;rounded=1;orthogonalLoop=1;jettySize=auto;html=1;exitX=0.5;exitY=1;exitDx=0;exitDy=0;strokeColor=default;curved=0;strokeWidth=3;fontColor=#FFFFFF;fontStyle=1" edge="1" parent="1" source="QyTk0_hx5FmbBSK6naLs-77" target="QyTk0_hx5FmbBSK6naLs-79">
          <mxGeometry relative="1" as="geometry" />
        </mxCell>
        <mxCell id="QyTk0_hx5FmbBSK6naLs-157" style="edgeStyle=orthogonalEdgeStyle;rounded=1;orthogonalLoop=1;jettySize=auto;html=1;exitX=0.5;exitY=1;exitDx=0;exitDy=0;entryX=0.5;entryY=0;entryDx=0;entryDy=0;strokeColor=default;curved=0;strokeWidth=3;fontColor=#FFFFFF;fontStyle=1" edge="1" parent="1" source="QyTk0_hx5FmbBSK6naLs-77" target="QyTk0_hx5FmbBSK6naLs-78">
          <mxGeometry relative="1" as="geometry" />
        </mxCell>
        <mxCell id="QyTk0_hx5FmbBSK6naLs-77" value="Garage &amp; Transport&#xa;Dir." style="rounded=1;fillColor=#C0504D;strokeColor=none;shadow=1;fontStyle=1;fontSize=14;fontColor=#FFFFFF;" vertex="1" parent="1">
          <mxGeometry x="122" y="935" width="200" height="60" as="geometry" />
        </mxCell>
        <mxCell id="QyTk0_hx5FmbBSK6naLs-133" value="Property Mgr." style="rounded=1;fillColor=#829E4B;strokeColor=none;shadow=1;gradientColor=none;fontStyle=1;fontColor=#FFFFFF;fontSize=14;" vertex="1" parent="1">
          <mxGeometry x="505.75" y="375" width="200" height="60" as="geometry" />
        </mxCell>
        <mxCell id="QyTk0_hx5FmbBSK6naLs-134" value="Human Resource Mgr." style="rounded=1;fillColor=#829E4B;strokeColor=none;shadow=1;gradientColor=none;fontStyle=1;fontColor=#FFFFFF;fontSize=14;" vertex="1" parent="1">
          <mxGeometry x="505.75" y="465" width="200" height="60" as="geometry" />
        </mxCell>
        <mxCell id="QyTk0_hx5FmbBSK6naLs-135" value="EHS E" style="rounded=1;fillColor=#829E4B;strokeColor=none;shadow=1;gradientColor=none;fontStyle=1;fontColor=#FFFFFF;fontSize=14;" vertex="1" parent="1">
          <mxGeometry x="505.75" y="559.5" width="200" height="60" as="geometry" />
        </mxCell>
        <mxCell id="QyTk0_hx5FmbBSK6naLs-136" style="edgeStyle=orthogonalEdgeStyle;rounded=1;orthogonalLoop=1;jettySize=auto;html=1;exitX=0.5;exitY=1;exitDx=0;exitDy=0;entryX=0.5;entryY=0;entryDx=0;entryDy=0;strokeWidth=3;curved=0;fontColor=#FFFFFF;fontStyle=1" edge="1" parent="1" source="QyTk0_hx5FmbBSK6naLs-138" target="QyTk0_hx5FmbBSK6naLs-144">
          <mxGeometry relative="1" as="geometry">
            <Array as="points">
              <mxPoint x="607" y="920.5" />
              <mxPoint x="492" y="920.5" />
            </Array>
          </mxGeometry>
        </mxCell>
        <mxCell id="QyTk0_hx5FmbBSK6naLs-137" style="edgeStyle=orthogonalEdgeStyle;rounded=1;orthogonalLoop=1;jettySize=auto;html=1;exitX=0.5;exitY=1;exitDx=0;exitDy=0;entryX=0.5;entryY=0;entryDx=0;entryDy=0;strokeWidth=3;curved=0;fontColor=#FFFFFF;fontStyle=1" edge="1" parent="1" source="QyTk0_hx5FmbBSK6naLs-138" target="QyTk0_hx5FmbBSK6naLs-147">
          <mxGeometry relative="1" as="geometry">
            <Array as="points">
              <mxPoint x="607" y="920.5" />
              <mxPoint x="725" y="920.5" />
            </Array>
          </mxGeometry>
        </mxCell>
        <mxCell id="QyTk0_hx5FmbBSK6naLs-138" value="P&amp;T Dir." style="rounded=1;fillColor=#829E4B;strokeColor=none;shadow=1;gradientColor=none;fontStyle=1;fontColor=#FFFFFF;fontSize=14;" vertex="1" parent="1">
          <mxGeometry x="507" y="850.5" width="200" height="60" as="geometry" />
        </mxCell>
        <mxCell id="QyTk0_hx5FmbBSK6naLs-139" style="edgeStyle=orthogonalEdgeStyle;rounded=1;orthogonalLoop=1;jettySize=auto;html=1;exitX=0.5;exitY=1;exitDx=0;exitDy=0;entryX=0.5;entryY=0;entryDx=0;entryDy=0;curved=0;strokeWidth=3;fontColor=#FFFFFF;fontStyle=1" edge="1" parent="1" source="QyTk0_hx5FmbBSK6naLs-141" target="QyTk0_hx5FmbBSK6naLs-142">
          <mxGeometry relative="1" as="geometry">
            <Array as="points">
              <mxPoint x="606" y="725" />
              <mxPoint x="491" y="725" />
            </Array>
          </mxGeometry>
        </mxCell>
        <mxCell id="QyTk0_hx5FmbBSK6naLs-140" style="edgeStyle=orthogonalEdgeStyle;rounded=1;orthogonalLoop=1;jettySize=auto;html=1;exitX=0.5;exitY=1;exitDx=0;exitDy=0;entryX=0.5;entryY=0;entryDx=0;entryDy=0;curved=0;strokeWidth=3;fontColor=#FFFFFF;fontStyle=1" edge="1" parent="1" source="QyTk0_hx5FmbBSK6naLs-141" target="QyTk0_hx5FmbBSK6naLs-143">
          <mxGeometry relative="1" as="geometry">
            <Array as="points">
              <mxPoint x="606" y="725" />
              <mxPoint x="723" y="725" />
            </Array>
          </mxGeometry>
        </mxCell>
        <mxCell id="QyTk0_hx5FmbBSK6naLs-141" value="Quality Mgr." style="rounded=1;fillColor=#829E4B;strokeColor=none;shadow=1;gradientColor=none;fontStyle=1;fontColor=#FFFFFF;fontSize=14;" vertex="1" parent="1">
          <mxGeometry x="505.75" y="655" width="200" height="60" as="geometry" />
        </mxCell>
        <mxCell id="QyTk0_hx5FmbBSK6naLs-142" value="Sr. Chemist" style="rounded=1;fillColor=#8064A2;strokeColor=none;shadow=1;gradientColor=none;fontStyle=1;fontColor=#FFFFFF;fontSize=14;" vertex="1" parent="1">
          <mxGeometry x="390.75" y="749.5" width="200" height="60" as="geometry" />
        </mxCell>
        <mxCell id="QyTk0_hx5FmbBSK6naLs-143" value="Sr. Microbiologist" style="rounded=1;fillColor=#8064A2;strokeColor=none;shadow=1;gradientColor=none;fontStyle=1;fontColor=#FFFFFF;fontSize=14;" vertex="1" parent="1">
          <mxGeometry x="623.25" y="749.5" width="200" height="60" as="geometry" />
        </mxCell>
        <mxCell id="QyTk0_hx5FmbBSK6naLs-144" value="Production Mgr." style="rounded=1;fillColor=#4F81BD;strokeColor=none;shadow=1;gradientColor=none;fontStyle=1;fontColor=#FFFFFF;fontSize=14;" vertex="1" parent="1">
          <mxGeometry x="392" y="940.5" width="200" height="60" as="geometry" />
        </mxCell>
        <mxCell id="QyTk0_hx5FmbBSK6naLs-145" style="edgeStyle=orthogonalEdgeStyle;rounded=1;orthogonalLoop=1;jettySize=auto;html=1;exitX=0.5;exitY=1;exitDx=0;exitDy=0;entryX=0.5;entryY=0;entryDx=0;entryDy=0;strokeWidth=3;curved=0;fontColor=#FFFFFF;fontStyle=1" edge="1" parent="1" source="QyTk0_hx5FmbBSK6naLs-147" target="QyTk0_hx5FmbBSK6naLs-148">
          <mxGeometry relative="1" as="geometry">
            <Array as="points">
              <mxPoint x="725" y="1010.5" />
              <mxPoint x="607" y="1010.5" />
            </Array>
          </mxGeometry>
        </mxCell>
        <mxCell id="QyTk0_hx5FmbBSK6naLs-146" style="edgeStyle=orthogonalEdgeStyle;rounded=1;orthogonalLoop=1;jettySize=auto;html=1;exitX=0.5;exitY=1;exitDx=0;exitDy=0;entryX=0.5;entryY=0;entryDx=0;entryDy=0;strokeWidth=3;curved=0;fontColor=#FFFFFF;fontStyle=1" edge="1" parent="1" source="QyTk0_hx5FmbBSK6naLs-147" target="QyTk0_hx5FmbBSK6naLs-149">
          <mxGeometry relative="1" as="geometry">
            <Array as="points">
              <mxPoint x="725" y="1010.5" />
              <mxPoint x="842" y="1010.5" />
            </Array>
          </mxGeometry>
        </mxCell>
        <mxCell id="QyTk0_hx5FmbBSK6naLs-147" value="Technique Mgr." style="rounded=1;fillColor=#4F81BD;strokeColor=none;shadow=1;gradientColor=none;fontStyle=1;fontColor=#FFFFFF;fontSize=14;" vertex="1" parent="1">
          <mxGeometry x="624.5" y="940.5" width="200" height="60" as="geometry" />
        </mxCell>
        <mxCell id="QyTk0_hx5FmbBSK6naLs-148" value="Sr. Mechanic" style="rounded=1;fillColor=#57C3D4;strokeColor=none;shadow=1;fontStyle=1;fontSize=14;" vertex="1" parent="1">
          <mxGeometry x="507" y="1035" width="200" height="60" as="geometry" />
        </mxCell>
        <mxCell id="QyTk0_hx5FmbBSK6naLs-149" value="Sr. Electrical" style="rounded=1;fillColor=#57C3D4;strokeColor=none;shadow=1;fontStyle=1;fontSize=14;" vertex="1" parent="1">
          <mxGeometry x="742" y="1035" width="200" height="60" as="geometry" />
        </mxCell>
        <mxCell id="QyTk0_hx5FmbBSK6naLs-78" value="Transport Manager" style="rounded=1;fillColor=#8064A2;strokeColor=none;shadow=1;fontStyle=1;fontSize=14;fontColor=#FFFFFF;" vertex="1" parent="1">
          <mxGeometry x="237" y="1035" width="200" height="60" as="geometry" />
        </mxCell>
        <mxCell id="QyTk0_hx5FmbBSK6naLs-79" value="Garage Manager" style="rounded=1;fillColor=#8064A2;strokeColor=none;shadow=1;fontStyle=1;fontSize=14;fontColor=#FFFFFF;" vertex="1" parent="1">
          <mxGeometry x="7" y="1035" width="200" height="60" as="geometry" />
        </mxCell>
        <mxCell id="QyTk0_hx5FmbBSK6naLs-246" style="edgeStyle=orthogonalEdgeStyle;rounded=1;orthogonalLoop=1;jettySize=auto;html=1;exitX=0.5;exitY=1;exitDx=0;exitDy=0;entryX=0.5;entryY=0;entryDx=0;entryDy=0;curved=0;strokeWidth=3;fontColor=#FFFFFF;fontStyle=1" edge="1" parent="1" source="QyTk0_hx5FmbBSK6naLs-239" target="QyTk0_hx5FmbBSK6naLs-240">
          <mxGeometry relative="1" as="geometry" />
        </mxCell>
        <mxCell id="QyTk0_hx5FmbBSK6naLs-239" value="Construction Dir." style="rounded=1;fillColor=#C0504D;strokeColor=none;shadow=1;gradientColor=none;fontStyle=1;fontColor=#FFFFFF;fontSize=14;" vertex="1" parent="1">
          <mxGeometry x="1022" y="285" width="200" height="60" as="geometry" />
        </mxCell>
        <mxCell id="QyTk0_hx5FmbBSK6naLs-240" value="Site Mgrs." style="rounded=1;fillColor=#829E4B;strokeColor=none;shadow=1;gradientColor=none;fontStyle=1;fontColor=#FFFFFF;fontSize=14;" vertex="1" parent="1">
          <mxGeometry x="1022" y="375" width="200" height="60" as="geometry" />
        </mxCell>
        <mxCell id="QyTk0_hx5FmbBSK6naLs-241" value="PM Dir." style="rounded=1;fillColor=#C0504D;strokeColor=none;shadow=1;gradientColor=none;fontStyle=1;fontColor=#FFFFFF;fontSize=14;" vertex="1" parent="1">
          <mxGeometry x="1022" y="190.5" width="200" height="60" as="geometry" />
        </mxCell>
        <mxCell id="QyTk0_hx5FmbBSK6naLs-255" style="edgeStyle=orthogonalEdgeStyle;rounded=1;orthogonalLoop=1;jettySize=auto;html=1;exitX=0.5;exitY=1;exitDx=0;exitDy=0;entryX=0.5;entryY=0;entryDx=0;entryDy=0;strokeWidth=3;curved=0;fontColor=#FFFFFF;fontStyle=1" edge="1" parent="1" source="QyTk0_hx5FmbBSK6naLs-247" target="QyTk0_hx5FmbBSK6naLs-253">
          <mxGeometry relative="1" as="geometry" />
        </mxCell>
        <mxCell id="QyTk0_hx5FmbBSK6naLs-247" value="Finance Dir." style="rounded=1;fillColor=#C0504D;strokeColor=none;shadow=1;gradientColor=none;fontStyle=1;fontColor=#FFFFFF;fontSize=14;" vertex="1" parent="1">
          <mxGeometry x="1272" y="190.5" width="200" height="60" as="geometry" />
        </mxCell>
        <mxCell id="QyTk0_hx5FmbBSK6naLs-258" style="edgeStyle=orthogonalEdgeStyle;rounded=1;orthogonalLoop=1;jettySize=auto;html=1;exitX=0.5;exitY=1;exitDx=0;exitDy=0;entryX=0.5;entryY=0;entryDx=0;entryDy=0;strokeWidth=3;curved=0;fontColor=#FFFFFF;fontStyle=1" edge="1" parent="1" source="QyTk0_hx5FmbBSK6naLs-248" target="QyTk0_hx5FmbBSK6naLs-250">
          <mxGeometry relative="1" as="geometry">
            <Array as="points">
              <mxPoint x="1372" y="445" />
              <mxPoint x="1256" y="445" />
            </Array>
          </mxGeometry>
        </mxCell>
        <mxCell id="QyTk0_hx5FmbBSK6naLs-259" style="edgeStyle=orthogonalEdgeStyle;rounded=1;orthogonalLoop=1;jettySize=auto;html=1;exitX=0.5;exitY=1;exitDx=0;exitDy=0;entryX=0.5;entryY=0;entryDx=0;entryDy=0;strokeWidth=3;curved=0;fontColor=#FFFFFF;fontStyle=1" edge="1" parent="1" source="QyTk0_hx5FmbBSK6naLs-248" target="QyTk0_hx5FmbBSK6naLs-249">
          <mxGeometry relative="1" as="geometry">
            <Array as="points">
              <mxPoint x="1372" y="445" />
              <mxPoint x="1488" y="445" />
            </Array>
          </mxGeometry>
        </mxCell>
        <mxCell id="QyTk0_hx5FmbBSK6naLs-248" value="Legal Dir." style="rounded=1;fillColor=#C0504D;strokeColor=none;shadow=1;gradientColor=none;fontStyle=1;fontColor=#FFFFFF;fontSize=14;" vertex="1" parent="1">
          <mxGeometry x="1272" y="375" width="200" height="60" as="geometry" />
        </mxCell>
        <mxCell id="QyTk0_hx5FmbBSK6naLs-250" value="Federal Dir." style="rounded=1;fillColor=#829E4B;strokeColor=none;shadow=1;gradientColor=none;fontStyle=1;fontColor=#FFFFFF;fontSize=14;" vertex="1" parent="1">
          <mxGeometry x="1155.75" y="469.5" width="200" height="60" as="geometry" />
        </mxCell>
        <mxCell id="QyTk0_hx5FmbBSK6naLs-260" value="" style="edgeStyle=orthogonalEdgeStyle;rounded=1;orthogonalLoop=1;jettySize=auto;html=1;strokeWidth=3;curved=0;fontColor=#FFFFFF;fontStyle=1" edge="1" parent="1" source="QyTk0_hx5FmbBSK6naLs-249" target="QyTk0_hx5FmbBSK6naLs-252">
          <mxGeometry relative="1" as="geometry" />
        </mxCell>
        <mxCell id="QyTk0_hx5FmbBSK6naLs-249" value="Regional Dir." style="rounded=1;fillColor=#829E4B;strokeColor=none;shadow=1;gradientColor=none;fontStyle=1;fontColor=#FFFFFF;fontSize=14;" vertex="1" parent="1">
          <mxGeometry x="1388.25" y="469.5" width="200" height="60" as="geometry" />
        </mxCell>
        <mxCell id="QyTk0_hx5FmbBSK6naLs-252" value="Legal Mgr." style="rounded=1;fillColor=#8064A2;strokeColor=none;shadow=1;gradientColor=none;fontStyle=1;fontColor=#FFFFFF;fontSize=14;" vertex="1" parent="1">
          <mxGeometry x="1388.25" y="559.5" width="200" height="60" as="geometry" />
        </mxCell>
        <mxCell id="QyTk0_hx5FmbBSK6naLs-253" value="Internal Audit &amp;&#xa;Investment Dept." style="rounded=1;fillColor=#829E4B;strokeColor=none;shadow=1;gradientColor=none;fontStyle=1;fontColor=#FFFFFF;fontSize=14;" vertex="1" parent="1">
          <mxGeometry x="1272" y="285" width="200" height="60" as="geometry" />
        </mxCell>
        <mxCell id="QyTk0_hx5FmbBSK6naLs-269" style="edgeStyle=orthogonalEdgeStyle;rounded=1;orthogonalLoop=1;jettySize=auto;html=1;exitX=0.5;exitY=1;exitDx=0;exitDy=0;entryX=0.5;entryY=0;entryDx=0;entryDy=0;strokeWidth=3;curved=0;fontColor=#FFFFFF;fontStyle=1" edge="1" parent="1" source="QyTk0_hx5FmbBSK6naLs-264" target="QyTk0_hx5FmbBSK6naLs-266">
          <mxGeometry relative="1" as="geometry" />
        </mxCell>
        <mxCell id="QyTk0_hx5FmbBSK6naLs-270" style="edgeStyle=orthogonalEdgeStyle;rounded=1;orthogonalLoop=1;jettySize=auto;html=1;exitX=0.5;exitY=1;exitDx=0;exitDy=0;entryX=0.5;entryY=0;entryDx=0;entryDy=0;strokeWidth=3;curved=0;fontColor=#FFFFFF;fontStyle=1" edge="1" parent="1" source="QyTk0_hx5FmbBSK6naLs-264" target="QyTk0_hx5FmbBSK6naLs-265">
          <mxGeometry relative="1" as="geometry" />
        </mxCell>
        <mxCell id="QyTk0_hx5FmbBSK6naLs-271" style="edgeStyle=orthogonalEdgeStyle;rounded=1;orthogonalLoop=1;jettySize=auto;html=1;exitX=0.5;exitY=1;exitDx=0;exitDy=0;entryX=0.5;entryY=0;entryDx=0;entryDy=0;strokeWidth=3;curved=0;fontColor=#FFFFFF;fontStyle=1" edge="1" parent="1" source="QyTk0_hx5FmbBSK6naLs-264" target="QyTk0_hx5FmbBSK6naLs-267">
          <mxGeometry relative="1" as="geometry" />
        </mxCell>
        <mxCell id="QyTk0_hx5FmbBSK6naLs-264" value="Supply Chain &amp;&#xa;Import Export Dir." style="rounded=1;fillColor=#C0504D;strokeColor=none;shadow=1;gradientColor=none;fontStyle=1;fontColor=#FFFFFF;fontSize=14;" vertex="1" parent="1">
          <mxGeometry x="1272" y="655" width="200" height="60" as="geometry" />
        </mxCell>
        <mxCell id="QyTk0_hx5FmbBSK6naLs-265" value="Import Export Dept." style="rounded=1;fillColor=#829E4B;strokeColor=none;shadow=1;gradientColor=none;fontStyle=1;fontColor=#FFFFFF;fontSize=14;" vertex="1" parent="1">
          <mxGeometry x="1037" y="755" width="200" height="60" as="geometry" />
        </mxCell>
        <mxCell id="QyTk0_hx5FmbBSK6naLs-266" value="Property Dept." style="rounded=1;fillColor=#829E4B;strokeColor=none;shadow=1;gradientColor=none;fontStyle=1;fontColor=#FFFFFF;fontSize=14;" vertex="1" parent="1">
          <mxGeometry x="1272" y="755" width="200" height="60" as="geometry" />
        </mxCell>
        <mxCell id="QyTk0_hx5FmbBSK6naLs-267" value="Local Procurement Dept." style="rounded=1;fillColor=#829E4B;strokeColor=none;shadow=1;gradientColor=none;fontStyle=1;fontColor=#FFFFFF;fontSize=14;" vertex="1" parent="1">
          <mxGeometry x="1512" y="755" width="200" height="60" as="geometry" />
        </mxCell>
        <mxCell id="QyTk0_hx5FmbBSK6naLs-286" style="edgeStyle=orthogonalEdgeStyle;rounded=1;orthogonalLoop=1;jettySize=auto;html=1;exitX=0.5;exitY=1;exitDx=0;exitDy=0;entryX=0.5;entryY=0;entryDx=0;entryDy=0;strokeWidth=3;curved=0;fontColor=#FFFFFF;fontStyle=1" edge="1" parent="1" source="QyTk0_hx5FmbBSK6naLs-272" target="QyTk0_hx5FmbBSK6naLs-282">
          <mxGeometry relative="1" as="geometry" />
        </mxCell>
        <mxCell id="QyTk0_hx5FmbBSK6naLs-272" value="Regional Marketing &amp;&#xa;Sales Dir." style="rounded=1;fillColor=#829E4B;strokeColor=none;shadow=1;gradientColor=none;fontStyle=1;fontColor=#FFFFFF;fontSize=14;" vertex="1" parent="1">
          <mxGeometry x="1037" y="940.5" width="200" height="60" as="geometry" />
        </mxCell>
        <mxCell id="QyTk0_hx5FmbBSK6naLs-290" value="" style="edgeStyle=orthogonalEdgeStyle;rounded=1;orthogonalLoop=1;jettySize=auto;html=1;strokeWidth=3;curved=0;fontColor=#FFFFFF;fontStyle=1" edge="1" parent="1" source="QyTk0_hx5FmbBSK6naLs-273" target="QyTk0_hx5FmbBSK6naLs-284">
          <mxGeometry relative="1" as="geometry" />
        </mxCell>
        <mxCell id="QyTk0_hx5FmbBSK6naLs-273" value="Addis Ababa Marketing &amp;&#xa;Sales Dir." style="rounded=1;fillColor=#829E4B;strokeColor=none;shadow=1;gradientColor=none;fontStyle=1;fontColor=#FFFFFF;fontSize=14;" vertex="1" parent="1">
          <mxGeometry x="1272" y="940.5" width="200" height="60" as="geometry" />
        </mxCell>
        <mxCell id="QyTk0_hx5FmbBSK6naLs-274" value="Marketing Dir." style="rounded=1;fillColor=#829E4B;strokeColor=none;shadow=1;gradientColor=none;fontStyle=1;fontColor=#FFFFFF;fontSize=14;" vertex="1" parent="1">
          <mxGeometry x="1512" y="940.5" width="200" height="60" as="geometry" />
        </mxCell>
        <mxCell id="QyTk0_hx5FmbBSK6naLs-279" value="" style="edgeStyle=orthogonalEdgeStyle;rounded=1;orthogonalLoop=1;jettySize=auto;html=1;strokeWidth=3;curved=0;fontColor=#FFFFFF;fontStyle=1" edge="1" parent="1" source="QyTk0_hx5FmbBSK6naLs-275" target="QyTk0_hx5FmbBSK6naLs-273">
          <mxGeometry relative="1" as="geometry" />
        </mxCell>
        <mxCell id="QyTk0_hx5FmbBSK6naLs-280" style="edgeStyle=orthogonalEdgeStyle;rounded=1;orthogonalLoop=1;jettySize=auto;html=1;exitX=0.5;exitY=1;exitDx=0;exitDy=0;entryX=0.5;entryY=0;entryDx=0;entryDy=0;strokeWidth=3;curved=0;fontColor=#FFFFFF;fontStyle=1" edge="1" parent="1" source="QyTk0_hx5FmbBSK6naLs-275" target="QyTk0_hx5FmbBSK6naLs-272">
          <mxGeometry relative="1" as="geometry">
            <Array as="points">
              <mxPoint x="1372" y="920" />
              <mxPoint x="1137" y="920" />
            </Array>
          </mxGeometry>
        </mxCell>
        <mxCell id="QyTk0_hx5FmbBSK6naLs-281" style="edgeStyle=orthogonalEdgeStyle;rounded=1;orthogonalLoop=1;jettySize=auto;html=1;exitX=0.5;exitY=1;exitDx=0;exitDy=0;entryX=0.5;entryY=0;entryDx=0;entryDy=0;strokeWidth=3;curved=0;fontColor=#FFFFFF;fontStyle=1" edge="1" parent="1" source="QyTk0_hx5FmbBSK6naLs-275" target="QyTk0_hx5FmbBSK6naLs-274">
          <mxGeometry relative="1" as="geometry">
            <Array as="points">
              <mxPoint x="1372" y="920" />
              <mxPoint x="1612" y="920" />
            </Array>
          </mxGeometry>
        </mxCell>
        <mxCell id="QyTk0_hx5FmbBSK6naLs-275" value="Marketing &amp; Sales Dir." style="rounded=1;fillColor=#C0504D;strokeColor=none;shadow=1;gradientColor=none;fontStyle=1;fontColor=#FFFFFF;fontSize=14;" vertex="1" parent="1">
          <mxGeometry x="1272" y="850.5" width="200" height="60" as="geometry" />
        </mxCell>
        <mxCell id="QyTk0_hx5FmbBSK6naLs-288" style="edgeStyle=orthogonalEdgeStyle;rounded=1;orthogonalLoop=1;jettySize=auto;html=1;exitX=0.5;exitY=1;exitDx=0;exitDy=0;entryX=0.5;entryY=0;entryDx=0;entryDy=0;strokeWidth=3;curved=0;fontColor=#FFFFFF;fontStyle=1" edge="1" parent="1" source="QyTk0_hx5FmbBSK6naLs-282" target="QyTk0_hx5FmbBSK6naLs-283">
          <mxGeometry relative="1" as="geometry" />
        </mxCell>
        <mxCell id="QyTk0_hx5FmbBSK6naLs-282" value="Marketing &amp; Sales Suprv." style="rounded=1;fillColor=#4F81BD;strokeColor=none;shadow=1;gradientColor=none;fontStyle=1;fontColor=#FFFFFF;fontSize=14;" vertex="1" parent="1">
          <mxGeometry x="1037" y="1035" width="200" height="60" as="geometry" />
        </mxCell>
        <mxCell id="QyTk0_hx5FmbBSK6naLs-283" value="Sales" style="rounded=1;fillColor=#4F81BD;strokeColor=none;shadow=1;gradientColor=none;fontStyle=1;fontColor=#FFFFFF;fontSize=14;" vertex="1" parent="1">
          <mxGeometry x="1037" y="1125" width="200" height="60" as="geometry" />
        </mxCell>
        <mxCell id="QyTk0_hx5FmbBSK6naLs-289" style="edgeStyle=orthogonalEdgeStyle;rounded=1;orthogonalLoop=1;jettySize=auto;html=1;exitX=0.5;exitY=1;exitDx=0;exitDy=0;entryX=0.5;entryY=0;entryDx=0;entryDy=0;strokeWidth=3;curved=0;fontColor=#FFFFFF;fontStyle=1" edge="1" parent="1" source="QyTk0_hx5FmbBSK6naLs-284" target="QyTk0_hx5FmbBSK6naLs-285">
          <mxGeometry relative="1" as="geometry" />
        </mxCell>
        <mxCell id="QyTk0_hx5FmbBSK6naLs-284" value="Marketing &amp; Sales Suprv." style="rounded=1;fillColor=#4F81BD;strokeColor=none;shadow=1;gradientColor=none;fontStyle=1;fontColor=#FFFFFF;fontSize=14;" vertex="1" parent="1">
          <mxGeometry x="1272" y="1035" width="200" height="60" as="geometry" />
        </mxCell>
        <mxCell id="QyTk0_hx5FmbBSK6naLs-285" value="Sales" style="rounded=1;fillColor=#4F81BD;strokeColor=none;shadow=1;gradientColor=none;fontStyle=1;fontColor=#FFFFFF;fontSize=14;" vertex="1" parent="1">
          <mxGeometry x="1272" y="1125" width="200" height="60" as="geometry" />
        </mxCell>
        <mxCell id="QyTk0_hx5FmbBSK6naLs-390" style="edgeStyle=orthogonalEdgeStyle;rounded=1;orthogonalLoop=1;jettySize=auto;html=1;exitX=0.5;exitY=1;exitDx=0;exitDy=0;entryX=1;entryY=0.5;entryDx=0;entryDy=0;strokeWidth=4;curved=0;fontColor=#FFFFFF;fontStyle=1" edge="1" parent="1" source="3" target="QyTk0_hx5FmbBSK6naLs-77">
          <mxGeometry relative="1" as="geometry">
            <mxPoint x="607" y="115" as="sourcePoint" />
            <mxPoint x="322" y="965" as="targetPoint" />
            <Array as="points">
              <mxPoint x="607" y="160" />
              <mxPoint x="366" y="160" />
              <mxPoint x="366" y="965" />
            </Array>
          </mxGeometry>
        </mxCell>
        <mxCell id="QyTk0_hx5FmbBSK6naLs-229" value="TOP 2 FM" style="rounded=1;fillColor=#C0504D;strokeColor=none;shadow=1;gradientColor=none;fontStyle=1;fontColor=#FFFFFF;fontSize=14;" vertex="1" parent="1">
          <mxGeometry x="772" y="190.5" width="200" height="60" as="geometry" />
        </mxCell>
        <mxCell id="QyTk0_hx5FmbBSK6naLs-230" value="TOP 3 FM" style="rounded=1;fillColor=#C0504D;strokeColor=none;shadow=1;gradientColor=none;fontStyle=1;fontColor=#FFFFFF;fontSize=14;" vertex="1" parent="1">
          <mxGeometry x="772" y="285" width="200" height="60" as="geometry" />
        </mxCell>
        <mxCell id="QyTk0_hx5FmbBSK6naLs-231" value="TOP 4 FM" style="rounded=1;fillColor=#C0504D;strokeColor=none;shadow=1;gradientColor=none;fontStyle=1;fontColor=#FFFFFF;fontSize=14;" vertex="1" parent="1">
          <mxGeometry x="772" y="375" width="200" height="60" as="geometry" />
        </mxCell>
      </root>
    </mxGraphModel>
  </diagram>
</mxfile>
